<svg width="99" height="19" viewBox="0 0 99 19" fill="none" xmlns="http://www.w3.org/2000/svg">
<path d="M9.02447 1.46352C9.17415 1.00287 9.82585 1.00287 9.97553 1.46353L11.5206 6.21885C11.5876 6.42486 11.7795 6.56434 11.9962 6.56434H16.9962C17.4806 6.56434 17.6819 7.18415 17.2901 7.46885L13.245 10.4078C13.0697 10.5351 12.9964 10.7608 13.0633 10.9668L14.6084 15.7221C14.7581 16.1828 14.2309 16.5659 13.839 16.2812L9.79389 13.3422C9.61865 13.2149 9.38135 13.2149 9.20611 13.3422L5.16099 16.2812C4.76913 16.5659 4.24189 16.1828 4.39157 15.7221L5.93667 10.9668C6.0036 10.7608 5.93027 10.5351 5.75503 10.4078L1.70991 7.46885C1.31805 7.18415 1.51944 6.56434 2.0038 6.56434H7.00385C7.22046 6.56434 7.41244 6.42486 7.47937 6.21885L9.02447 1.46352Z" fill="#EAB600"/>
<path d="M29.0245 1.46352C29.1741 1.00287 29.8259 1.00287 29.9755 1.46353L31.5206 6.21885C31.5876 6.42486 31.7795 6.56434 31.9962 6.56434H36.9962C37.4806 6.56434 37.6819 7.18415 37.2901 7.46885L33.245 10.4078C33.0697 10.5351 32.9964 10.7608 33.0633 10.9668L34.6084 15.7221C34.7581 16.1828 34.2309 16.5659 33.839 16.2812L29.7939 13.3422C29.6186 13.2149 29.3814 13.2149 29.2061 13.3422L25.161 16.2812C24.7691 16.5659 24.2419 16.1828 24.3916 15.7221L25.9367 10.9668C26.0036 10.7608 25.9303 10.5351 25.755 10.4078L21.7099 7.46885C21.3181 7.18415 21.5194 6.56434 22.0038 6.56434H27.0038C27.2205 6.56434 27.4124 6.42486 27.4794 6.21885L29.0245 1.46352Z" fill="#EAB600"/>
<path d="M49.0245 1.46352C49.1741 1.00287 49.8259 1.00287 49.9755 1.46353L51.5206 6.21885C51.5876 6.42486 51.7795 6.56434 51.9962 6.56434H56.9962C57.4806 6.56434 57.6819 7.18415 57.2901 7.46885L53.245 10.4078C53.0697 10.5351 52.9964 10.7608 53.0633 10.9668L54.6084 15.7221C54.7581 16.1828 54.2309 16.5659 53.839 16.2812L49.7939 13.3422C49.6186 13.2149 49.3814 13.2149 49.2061 13.3422L45.161 16.2812C44.7691 16.5659 44.2419 16.1828 44.3916 15.7221L45.9367 10.9668C46.0036 10.7608 45.9303 10.5351 45.755 10.4078L41.7099 7.46885C41.3181 7.18415 41.5194 6.56434 42.0038 6.56434H47.0038C47.2205 6.56434 47.4124 6.42486 47.4794 6.21885L49.0245 1.46352Z" fill="#EAB600"/>
<path d="M69.0245 1.46352C69.1741 1.00287 69.8259 1.00287 69.9755 1.46353L71.5206 6.21885C71.5876 6.42486 71.7795 6.56434 71.9962 6.56434H76.9962C77.4806 6.56434 77.6819 7.18415 77.2901 7.46885L73.245 10.4078C73.0697 10.5351 72.9964 10.7608 73.0633 10.9668L74.6084 15.7221C74.7581 16.1828 74.2309 16.5659 73.839 16.2812L69.7939 13.3422C69.6186 13.2149 69.3814 13.2149 69.2061 13.3422L65.161 16.2812C64.7691 16.5659 64.2419 16.1828 64.3916 15.7221L65.9367 10.9668C66.0036 10.7608 65.9303 10.5351 65.755 10.4078L61.7099 7.46885C61.3181 7.18415 61.5194 6.56434 62.0038 6.56434H67.0038C67.2205 6.56434 67.4124 6.42486 67.4794 6.21885L69.0245 1.46352Z" fill="#EAB600"/>
<path d="M89.0245 1.46352C89.1741 1.00287 89.8259 1.00287 89.9755 1.46353L91.5206 6.21885C91.5876 6.42486 91.7795 6.56434 91.9962 6.56434H96.9962C97.4806 6.56434 97.6819 7.18415 97.2901 7.46885L93.245 10.4078C93.0697 10.5351 92.9964 10.7608 93.0633 10.9668L94.6084 15.7221C94.7581 16.1828 94.2309 16.5659 93.839 16.2812L89.7939 13.3422C89.6186 13.2149 89.3814 13.2149 89.2061 13.3422L85.161 16.2812C84.7691 16.5659 84.2419 16.1828 84.3916 15.7221L85.9367 10.9668C86.0036 10.7608 85.9303 10.5351 85.755 10.4078L81.7099 7.46885C81.3181 7.18415 81.5194 6.56434 82.0038 6.56434H87.0038C87.2205 6.56434 87.4124 6.42486 87.4794 6.21885L89.0245 1.46352Z" fill="#EAB600"/>
</svg>
