<svg width="34" height="34" viewBox="0 0 34 34" fill="none" xmlns="http://www.w3.org/2000/svg">
<path d="M17 0C7.64999 0 0 7.66366 0 17.1024C0 25.6366 6.22199 32.7199 14.348 34V22.0522H10.03V17.1024H14.348V13.3303C14.348 9.04619 16.881 6.69076 20.774 6.69076C22.627 6.69076 24.565 7.01506 24.565 7.01506V11.2309H22.423C20.315 11.2309 19.652 12.5452 19.652 13.8936V17.1024H24.378L23.613 22.0522H19.652V34C23.6579 33.3648 27.3057 31.3126 29.9368 28.214C32.568 25.1153 34.0091 21.1743 34 17.1024C34 7.66366 26.35 0 17 0Z" fill="#0E0B0A"/>
</svg>
