<svg width="34" height="34" viewBox="0 0 34 34" fill="none" xmlns="http://www.w3.org/2000/svg">
<path fill-rule="evenodd" clip-rule="evenodd" d="M17 34C26.3888 34 34 26.3888 34 17C34 7.61116 26.3888 0 17 0C7.61116 0 0 7.61116 0 17C0 26.3888 7.61116 34 17 34ZM20.9699 7.30577H12.8868C11.4066 7.30577 9.98704 7.89378 8.94038 8.94044C7.89371 9.98711 7.3057 11.4067 7.3057 12.8869V20.9699C7.3057 24.0492 9.80759 26.551 12.8868 26.551H20.9699C22.4501 26.551 23.8696 25.963 24.9163 24.9164C25.963 23.8697 26.551 22.4501 26.551 20.9699V12.8869C26.551 9.80765 24.0491 7.30577 20.9699 7.30577ZM10.2449 10.2449C10.8945 9.59527 11.7756 9.23029 12.6944 9.23029H21.1623C23.0772 9.23029 24.6265 10.7795 24.6265 12.6944V21.1624C24.6265 22.0811 24.2615 22.9622 23.6118 23.6119C22.9622 24.2615 22.0811 24.6265 21.1623 24.6265H12.6944C10.7795 24.6265 9.23023 23.0773 9.23023 21.1624V12.6944C9.23023 11.7757 9.5952 10.8946 10.2449 10.2449ZM22.8308 11.026C22.6052 10.8004 22.2992 10.6737 21.9802 10.6737C21.6612 10.6737 21.3553 10.8004 21.1297 11.026C20.9041 11.2516 20.7774 11.5575 20.7774 11.8765C20.7774 12.1955 20.9041 12.5015 21.1297 12.727C21.3553 12.9526 21.6612 13.0794 21.9802 13.0794C22.2992 13.0794 22.6052 12.9526 22.8308 12.727C23.0563 12.5015 23.1831 12.1955 23.1831 11.8765C23.1831 11.5575 23.0563 11.2516 22.8308 11.026ZM20.3305 13.5263C19.4282 12.624 18.2044 12.1171 16.9283 12.1171C15.6523 12.1171 14.4285 12.624 13.5262 13.5263C12.6239 14.4286 12.117 15.6524 12.117 16.9284C12.117 18.2044 12.6239 19.4282 13.5262 20.3305C14.4285 21.2328 15.6523 21.7397 16.9283 21.7397C18.2044 21.7397 19.4282 21.2328 20.3305 20.3305C21.2328 19.4282 21.7397 18.2044 21.7397 16.9284C21.7397 15.6524 21.2328 14.4286 20.3305 13.5263ZM14.8871 14.8871C15.4285 14.3458 16.1627 14.0416 16.9283 14.0416C17.694 14.0416 18.4282 14.3458 18.9696 14.8871C19.511 15.4285 19.8151 16.1628 19.8151 16.9284C19.8151 17.694 19.511 18.4283 18.9696 18.9697C18.4282 19.5111 17.694 19.8152 16.9283 19.8152C16.1627 19.8152 15.4285 19.5111 14.8871 18.9697C14.3457 18.4283 14.0416 17.694 14.0416 16.9284C14.0416 16.1628 14.3457 15.4285 14.8871 14.8871Z" fill="#0E0B0A"/>
</svg>
