<svg width="20" height="20" viewBox="0 0 20 20" fill="none" xmlns="http://www.w3.org/2000/svg">
<path d="M5.88686 0.305756H13.9699C17.0491 0.305756 19.551 2.80764 19.551 5.88689V13.9699C19.551 15.4501 18.963 16.8697 17.9163 17.9164C16.8697 18.963 15.4501 19.551 13.9699 19.551H5.88686C2.80761 19.551 0.305725 17.0492 0.305725 13.9699V5.88689C0.305725 4.40668 0.893736 2.9871 1.9404 1.94043C2.98707 0.893766 4.40665 0.305756 5.88686 0.305756ZM5.6944 2.23028C4.77565 2.23028 3.89453 2.59526 3.24488 3.24491C2.59523 3.89456 2.23025 4.77568 2.23025 5.69444V14.1624C2.23025 16.0773 3.7795 17.6265 5.6944 17.6265H14.1623C15.0811 17.6265 15.9622 17.2615 16.6119 16.6119C17.2615 15.9622 17.6265 15.0811 17.6265 14.1624V5.69444C17.6265 3.77953 16.0772 2.23028 14.1623 2.23028H5.6944ZM14.9803 3.67368C15.2993 3.67368 15.6052 3.80041 15.8308 4.02598C16.0564 4.25156 16.1831 4.5575 16.1831 4.87651C16.1831 5.19552 16.0564 5.50147 15.8308 5.72704C15.6052 5.95261 15.2993 6.07934 14.9803 6.07934C14.6612 6.07934 14.3553 5.95261 14.1297 5.72704C13.9041 5.50147 13.7774 5.19552 13.7774 4.87651C13.7774 4.5575 13.9041 4.25156 14.1297 4.02598C14.3553 3.80041 14.6612 3.67368 14.9803 3.67368ZM9.92837 5.11708C11.2044 5.11708 12.4282 5.62398 13.3305 6.52628C14.2328 7.42858 14.7397 8.65236 14.7397 9.9284C14.7397 11.2044 14.2328 12.4282 13.3305 13.3305C12.4282 14.2328 11.2044 14.7397 9.92837 14.7397C8.65233 14.7397 7.42855 14.2328 6.52625 13.3305C5.62395 12.4282 5.11705 11.2044 5.11705 9.9284C5.11705 8.65236 5.62395 7.42858 6.52625 6.52628C7.42855 5.62398 8.65233 5.11708 9.92837 5.11708ZM9.92837 7.0416C9.16274 7.0416 8.42847 7.34575 7.8871 7.88713C7.34572 8.4285 7.04157 9.16277 7.04157 9.9284C7.04157 10.694 7.34572 11.4283 7.8871 11.9697C8.42847 12.511 9.16274 12.8152 9.92837 12.8152C10.694 12.8152 11.4283 12.511 11.9696 11.9697C12.511 11.4283 12.8152 10.694 12.8152 9.9284C12.8152 9.16277 12.511 8.4285 11.9696 7.88713C11.4283 7.34575 10.694 7.0416 9.92837 7.0416Z" fill="white"/>
</svg>
