<svg width="365" height="98" viewBox="0 0 365 98" fill="none" xmlns="http://www.w3.org/2000/svg">
<path d="M203.329 41.3181H181.34L177.487 50.091C176.537 52.25 176.063 53.8625 176.063 54.9284C176.063 55.7756 176.468 56.5272 177.277 57.1831C178.115 57.8117 179.902 58.2216 182.638 58.4129V59.9297H164.754V58.4129C167.128 58.003 168.663 57.4701 169.361 56.8141C170.785 55.5023 172.363 52.8376 174.094 48.8201L194.073 3.06982H195.539L215.308 49.3121C216.899 53.0289 218.337 55.4476 219.622 56.5682C220.934 57.6614 222.749 58.2763 225.066 58.4129V59.9297H202.659V58.4129C204.92 58.3036 206.442 57.9347 207.224 57.3061C208.034 56.6775 208.439 55.9122 208.439 55.0104C208.439 53.8078 207.88 51.9084 206.763 49.3121L203.329 41.3181ZM202.156 38.2844L192.523 15.8192L182.638 38.2844H202.156Z" fill="#EAB600"/>
<path d="M227.537 59.9297V58.4129H229.674C232.075 58.4129 233.778 57.6614 234.783 56.1582C235.398 55.2563 235.705 53.2339 235.705 50.091V14.1794C235.705 10.7085 235.314 8.53581 234.532 7.66125C233.443 6.45874 231.824 5.85748 229.674 5.85748H227.537V4.34067H250.657C259.146 4.34067 265.596 5.28355 270.007 7.16931C274.447 9.05508 278.007 12.198 280.688 16.5981C283.396 20.9983 284.75 26.0816 284.75 31.8482C284.75 39.5826 282.349 46.0461 277.546 51.2388C272.157 57.0328 263.948 59.9297 252.919 59.9297H227.537ZM243.746 55.9122C247.293 56.6775 250.266 57.0601 252.668 57.0601C259.146 57.0601 264.521 54.8327 268.793 50.3779C273.065 45.9232 275.201 39.8832 275.201 32.2582C275.201 24.5785 273.065 18.5249 268.793 14.0975C264.521 9.67 259.034 7.45628 252.332 7.45628C249.819 7.45628 246.957 7.85256 243.746 8.64513V55.9122Z" fill="#EAB600"/>
<path d="M323.157 59.9297L301.21 13.1546V50.2959C301.21 53.7122 301.587 55.8439 302.341 56.6911C303.374 57.839 305.008 58.4129 307.242 58.4129H309.252V59.9297H289.483V58.4129H291.494C293.895 58.4129 295.598 57.7024 296.603 56.2812C297.218 55.4066 297.525 53.4116 297.525 50.2959V13.9745C297.525 11.5148 297.246 9.73833 296.687 8.64513C296.296 7.85256 295.57 7.19664 294.509 6.67738C293.476 6.13078 291.801 5.85748 289.483 5.85748V4.34067H305.566L326.173 47.8363L346.445 4.34067H362.528V5.85748H360.559C358.13 5.85748 356.413 6.56806 355.408 7.98921C354.793 8.86377 354.486 10.8589 354.486 13.9745V50.2959C354.486 53.7122 354.877 55.8439 355.659 56.6911C356.692 57.839 358.326 58.4129 360.559 58.4129H362.528V59.9297H338.403V58.4129H340.413C342.843 58.4129 344.546 57.7024 345.523 56.2812C346.137 55.4066 346.445 53.4116 346.445 50.2959V13.1546L324.54 59.9297H323.157Z" fill="#EAB600"/>
<path d="M99.3051 60.2812C88.4245 56.1491 82.3242 53.8324 71.4437 49.7004L67.449 43.6224L85.8787 0.523438H88.3135L121.149 78.9946C123.793 85.302 126.181 89.4064 128.314 91.3079C130.494 93.163 133.509 94.2065 137.358 94.4384V97.0124H100.14V94.4384C103.896 94.2529 106.424 93.6268 107.723 92.5601C109.068 91.4934 109.74 90.1948 109.74 88.6644C109.74 86.6237 108.813 83.4005 106.957 78.9946L99.3051 60.2812ZM99.3051 60.2812L83.3047 22.1587L71.4437 49.7004C82.3242 53.8324 88.4245 56.1491 99.3051 60.2812Z" fill="#EAB600"/>
<path d="M64.0709 65.4296H27.5484L21.1483 80.3169C19.5714 83.9807 18.783 86.717 18.783 88.5257C18.783 89.9634 19.4555 91.2388 20.8004 92.3519C22.1918 93.4186 25.1599 94.1142 29.7049 94.4389V97.0128H0V94.4389C3.94211 93.7432 6.49289 92.8388 7.65233 91.7258C10.0176 89.4996 12.6379 84.9778 15.5134 78.1603L48.6966 0.523926H51.1315L83.9669 78.9951C86.6105 85.3025 88.9989 89.4069 91.1323 91.3084C93.312 93.1635 96.3266 94.207 100.176 94.4389V97.0128H62.9578V94.4389C66.7144 94.2534 69.242 93.6273 70.5406 92.5606C71.8855 91.4939 72.558 90.1953 72.558 88.6648C72.558 86.6242 71.6304 83.401 69.7753 78.9951L64.0709 65.4296ZM62.123 60.2817L46.1227 22.1591L29.7049 60.2817H62.123Z" fill="#EAB600"/>
<path d="M167.064 94.3102H164.754L171.434 77.4656H173.708L180.389 94.3102H178.079L172.642 80.1305H172.5L167.064 94.3102ZM167.917 87.7303H177.226V89.5398H167.917V87.7303Z" fill="white"/>
<path d="M197.592 94.3102H191.978V77.4656H197.84C199.605 77.4656 201.115 77.8029 202.371 78.4773C203.626 79.1463 204.589 80.1086 205.258 81.3643C205.927 82.6144 206.262 84.1114 206.262 85.855C206.262 87.6097 205.924 89.1203 205.249 90.387C204.574 91.6481 203.591 92.6187 202.3 93.2986C201.009 93.973 199.439 94.3102 197.592 94.3102ZM194.181 92.5008H197.45C198.954 92.5008 200.2 92.2321 201.189 91.6947C202.178 91.1574 202.916 90.3925 203.401 89.4C203.887 88.4075 204.13 87.2259 204.13 85.855C204.13 84.4952 203.89 83.3245 203.41 82.343C202.93 81.356 202.214 80.5993 201.26 80.0729C200.307 79.5411 199.12 79.2751 197.698 79.2751H194.181V92.5008Z" fill="white"/>
<path d="M218.603 77.4656L224.004 91.6454H224.218L229.619 77.4656H231.928L225.248 94.3102H222.974L216.294 77.4656H218.603Z" fill="white"/>
<path d="M258.012 85.8879C258.012 87.6645 257.666 89.1998 256.973 90.4939C256.28 91.7879 255.329 92.7859 254.121 93.4878C252.913 94.1896 251.533 94.5405 249.982 94.5405C248.43 94.5405 247.05 94.1896 245.842 93.4878C244.634 92.7859 243.684 91.7879 242.991 90.4939C242.298 89.1998 241.951 87.6645 241.951 85.8879C241.951 84.1114 242.298 82.5761 242.991 81.282C243.684 79.988 244.634 78.99 245.842 78.2881C247.05 77.5863 248.43 77.2354 249.982 77.2354C251.533 77.2354 252.913 77.5863 254.121 78.2881C255.329 78.99 256.28 79.988 256.973 81.282C257.666 82.5761 258.012 84.1114 258.012 85.8879ZM255.88 85.8879C255.88 84.4294 255.617 83.1984 255.09 82.195C254.569 81.1915 253.861 80.4321 252.967 79.9167C252.078 79.4012 251.083 79.1435 249.982 79.1435C248.88 79.1435 247.882 79.4012 246.988 79.9167C246.1 80.4321 245.392 81.1915 244.865 82.195C244.344 83.1984 244.083 84.4294 244.083 85.8879C244.083 87.3465 244.344 88.5775 244.865 89.5809C245.392 90.5844 246.1 91.3438 246.988 91.8592C247.882 92.3747 248.88 92.6324 249.982 92.6324C251.083 92.6324 252.078 92.3747 252.967 91.8592C253.861 91.3438 254.569 90.5844 255.09 89.5809C255.617 88.5775 255.88 87.3465 255.88 85.8879Z" fill="white"/>
<path d="M282.908 82.7296C282.713 82.1758 282.455 81.6795 282.135 81.2409C281.821 80.7967 281.445 80.4184 281.007 80.1058C280.575 79.7933 280.083 79.5548 279.533 79.3903C278.982 79.2258 278.378 79.1435 277.72 79.1435C276.643 79.1435 275.662 79.4012 274.78 79.9167C273.898 80.4321 273.196 81.1915 272.675 82.195C272.154 83.1984 271.893 84.4294 271.893 85.8879C271.893 87.3465 272.157 88.5775 272.684 89.5809C273.211 90.5844 273.924 91.3438 274.824 91.8592C275.725 92.3747 276.737 92.6324 277.863 92.6324C278.905 92.6324 279.823 92.4267 280.616 92.0155C281.416 91.5988 282.038 91.0121 282.482 90.2554C282.932 89.4932 283.157 88.5967 283.157 87.5658L283.832 87.6974H278.36V85.8879H285.289V87.6974C285.289 89.0847 284.969 90.291 284.329 91.3164C283.696 92.3418 282.819 93.1368 281.7 93.7016C280.587 94.2609 279.307 94.5405 277.863 94.5405C276.252 94.5405 274.836 94.1896 273.616 93.4878C272.402 92.7859 271.455 91.7879 270.774 90.4939C270.099 89.1998 269.761 87.6645 269.761 85.8879C269.761 84.5555 269.954 83.3574 270.338 82.2937C270.729 81.2244 271.28 80.3142 271.991 79.563C272.701 78.8118 273.542 78.236 274.514 77.8358C275.485 77.4355 276.554 77.2354 277.72 77.2354C278.68 77.2354 279.574 77.3697 280.403 77.6384C281.238 77.9016 281.981 78.2772 282.633 78.7652C283.29 79.2477 283.838 79.8262 284.276 80.5006C284.714 81.1696 285.016 81.9126 285.182 82.7296H282.908Z" fill="white"/>
<path d="M298.001 94.3102H295.692L302.372 77.4656H304.646L311.326 94.3102H309.017L303.58 80.1305H303.438L298.001 94.3102ZM298.854 87.7303H308.164V89.5398H298.854V87.7303Z" fill="white"/>
<path d="M328.529 94.3102H322.915V77.4656H328.778C330.543 77.4656 332.053 77.8029 333.308 78.4773C334.564 79.1463 335.526 80.1086 336.195 81.3643C336.865 82.6144 337.199 84.1114 337.199 85.855C337.199 87.6097 336.862 89.1203 336.187 90.387C335.511 91.6481 334.528 92.6187 333.237 93.2986C331.946 93.973 330.377 94.3102 328.529 94.3102ZM325.118 92.5008H328.387C329.891 92.5008 331.138 92.2321 332.127 91.6947C333.116 91.1574 333.853 90.3925 334.339 89.4C334.825 88.4075 335.067 87.2259 335.067 85.855C335.067 84.4952 334.827 83.3245 334.348 82.343C333.868 81.356 333.152 80.5993 332.198 80.0729C331.245 79.5411 330.057 79.2751 328.636 79.2751H325.118V92.5008Z" fill="white"/>
<path d="M365 85.8879C365 87.6645 364.654 89.1998 363.961 90.4939C363.268 91.7879 362.317 92.7859 361.109 93.4878C359.901 94.1896 358.521 94.5405 356.97 94.5405C355.418 94.5405 354.038 94.1896 352.83 93.4878C351.622 92.7859 350.671 91.7879 349.979 90.4939C349.286 89.1998 348.939 87.6645 348.939 85.8879C348.939 84.1114 349.286 82.5761 349.979 81.282C350.671 79.988 351.622 78.99 352.83 78.2881C354.038 77.5863 355.418 77.2354 356.97 77.2354C358.521 77.2354 359.901 77.5863 361.109 78.2881C362.317 78.99 363.268 79.988 363.961 81.282C364.654 82.5761 365 84.1114 365 85.8879ZM362.868 85.8879C362.868 84.4294 362.605 83.1984 362.077 82.195C361.556 81.1915 360.849 80.4321 359.954 79.9167C359.066 79.4012 358.071 79.1435 356.97 79.1435C355.868 79.1435 354.87 79.4012 353.976 79.9167C353.088 80.4321 352.38 81.1915 351.853 82.195C351.332 83.1984 351.071 84.4294 351.071 85.8879C351.071 87.3465 351.332 88.5775 351.853 89.5809C352.38 90.5844 353.088 91.3438 353.976 91.8592C354.87 92.3747 355.868 92.6324 356.97 92.6324C358.071 92.6324 359.066 92.3747 359.954 91.8592C360.849 91.3438 361.556 90.5844 362.077 89.5809C362.605 88.5775 362.868 87.3465 362.868 85.8879Z" fill="white"/>
</svg>
