<svg width="190" height="50" viewBox="0 0 190 50" fill="none" xmlns="http://www.w3.org/2000/svg">
<path d="M105.364 21.1396H93.9693L91.9726 25.6856C91.4806 26.8045 91.2346 27.64 91.2346 28.1923C91.2346 28.6314 91.4445 29.0208 91.8641 29.3607C92.2981 29.6865 93.2242 29.8989 94.6421 29.998V30.784H85.3746V29.998C86.6045 29.7856 87.4003 29.5094 87.762 29.1695C88.5 28.4898 89.3175 27.1089 90.2146 25.0271L100.567 1.31955H101.327L111.571 25.282C112.396 27.2081 113.141 28.4614 113.807 29.0421C114.487 29.6086 115.427 29.9272 116.628 29.998V30.784H105.017V29.998C106.189 29.9414 106.977 29.7502 107.382 29.4245C107.802 29.0987 108.012 28.7022 108.012 28.2348C108.012 27.6117 107.722 26.6274 107.144 25.282L105.364 21.1396ZM104.756 19.5676L99.7642 7.92622L94.6421 19.5676H104.756Z" fill="#EAB600"/>
<path d="M117.909 30.784V29.998H119.015C120.26 29.998 121.142 29.6086 121.663 28.8296C121.982 28.3623 122.141 27.3143 122.141 25.6856V7.07649C122.141 5.27789 121.938 4.15199 121.533 3.6988C120.969 3.07566 120.13 2.7641 119.015 2.7641H117.909V1.97809H129.889C134.288 1.97809 137.63 2.46669 139.916 3.44388C142.217 4.42107 144.062 6.04973 145.451 8.32985C146.854 10.61 147.556 13.2441 147.556 16.2324C147.556 20.2403 146.312 23.5896 143.823 26.2805C141.03 29.2828 136.776 30.784 131.061 30.784H117.909ZM126.308 28.7022C128.146 29.0987 129.686 29.297 130.931 29.297C134.288 29.297 137.073 28.1428 139.287 25.8343C141.501 23.5259 142.607 20.3961 142.607 16.4448C142.607 12.4652 141.501 9.32828 139.287 7.034C137.073 4.73972 134.23 3.59258 130.757 3.59258C129.455 3.59258 127.972 3.79794 126.308 4.20864V28.7022Z" fill="#EAB600"/>
<path d="M167.458 30.784L156.085 6.54541V25.7919C156.085 27.5621 156.281 28.6668 156.671 29.1058C157.207 29.7006 158.053 29.998 159.211 29.998H160.253V30.784H150.008V29.998H151.05C152.295 29.998 153.177 29.6298 153.698 28.8934C154.016 28.4402 154.176 27.4063 154.176 25.7919V6.97027C154.176 5.69567 154.031 4.77513 153.741 4.20864C153.539 3.79794 153.163 3.45804 152.613 3.18896C152.078 2.90572 151.209 2.7641 150.008 2.7641V1.97809H158.343L169.021 24.5173L179.526 1.97809H187.86V2.7641H186.84C185.581 2.7641 184.691 3.13231 184.17 3.86875C183.852 4.32194 183.693 5.35578 183.693 6.97027V25.7919C183.693 27.5621 183.895 28.6668 184.3 29.1058C184.836 29.7006 185.682 29.998 186.84 29.998H187.86V30.784H175.358V29.998H176.4C177.659 29.998 178.542 29.6298 179.048 28.8934C179.366 28.4402 179.526 27.4063 179.526 25.7919V6.54541L168.174 30.784H167.458Z" fill="#EAB600"/>
<path d="M51.4593 30.9661C45.821 28.8249 42.6599 27.6244 37.0217 25.4832L34.9517 22.3336L44.5018 0H45.7635L62.7787 40.6633C64.1485 43.9317 65.3862 46.0586 66.4917 47.044C67.6213 48.0053 69.1834 48.546 71.1781 48.6662V50H51.8919V48.6662C53.8385 48.5701 55.1483 48.2456 55.8212 47.6929C56.5182 47.1401 56.8666 46.4672 56.8666 45.6741C56.8666 44.6167 56.386 42.9464 55.4247 40.6633L51.4593 30.9661ZM51.4593 30.9661L43.168 11.2112L37.0217 25.4832C42.6599 27.6244 45.821 28.8249 51.4593 30.9661Z" fill="#EAB600"/>
<path d="M33.2012 33.6337H14.2754L10.9589 41.3482C10.1418 43.2468 9.73324 44.6647 9.73324 45.602C9.73324 46.347 10.0817 47.0079 10.7787 47.5847C11.4996 48.1375 13.0377 48.498 15.3929 48.6662V50H0V48.6662C2.04278 48.3057 3.36458 47.8371 3.96539 47.2603C5.19106 46.1067 6.54891 43.7635 8.03893 40.2307L25.2343 0H26.496L43.5112 40.6633C44.881 43.9317 46.1187 46.0586 47.2242 47.044C48.3538 48.0053 49.9159 48.546 51.9106 48.6662V50H32.6244V48.6662C34.571 48.5701 35.8808 48.2456 36.5537 47.6929C37.2507 47.1401 37.5991 46.4672 37.5991 45.6741C37.5991 44.6167 37.1185 42.9464 36.1572 40.6633L33.2012 33.6337ZM32.1918 30.9661L23.9005 11.2112L15.3929 30.9661H32.1918Z" fill="#EAB600"/>
<path d="M86.5715 48.5996H85.3746L88.8362 39.8708H90.0147L93.4763 48.5996H92.2794L89.4623 41.2517H89.3886L86.5715 48.5996ZM87.0134 45.1899H91.8375V46.1276H87.0134V45.1899Z" fill="#0E0B0A"/>
<path d="M102.391 48.5996H99.4816V39.8708H102.52C103.434 39.8708 104.217 40.0455 104.867 40.395C105.518 40.7417 106.017 41.2404 106.363 41.891C106.71 42.5389 106.884 43.3146 106.884 44.2181C106.884 45.1274 106.709 45.9102 106.359 46.5666C106.009 47.2201 105.5 47.723 104.831 48.0753C104.162 48.4248 103.348 48.5996 102.391 48.5996ZM100.623 47.6619H102.317C103.097 47.6619 103.743 47.5227 104.255 47.2442C104.768 46.9658 105.15 46.5694 105.401 46.0551C105.653 45.5408 105.779 44.9285 105.779 44.2181C105.779 43.5135 105.654 42.9068 105.406 42.3982C105.157 41.8868 104.786 41.4947 104.292 41.2219C103.798 40.9463 103.183 40.8085 102.446 40.8085H100.623V47.6619Z" fill="#0E0B0A"/>
<path d="M113.279 39.8708L116.078 47.2187H116.188L118.987 39.8708H120.184L116.722 48.5996H115.544L112.082 39.8708H113.279Z" fill="#0E0B0A"/>
<path d="M133.7 44.2352C133.7 45.1558 133.521 45.9514 133.162 46.622C132.803 47.2925 132.31 47.8097 131.684 48.1734C131.058 48.5371 130.343 48.7189 129.539 48.7189C128.735 48.7189 128.02 48.5371 127.394 48.1734C126.768 47.8097 126.275 47.2925 125.916 46.622C125.557 45.9514 125.378 45.1558 125.378 44.2352C125.378 43.3146 125.557 42.519 125.916 41.8484C126.275 41.1778 126.768 40.6607 127.394 40.297C128.02 39.9333 128.735 39.7515 129.539 39.7515C130.343 39.7515 131.058 39.9333 131.684 40.297C132.31 40.6607 132.803 41.1778 133.162 41.8484C133.521 42.519 133.7 43.3146 133.7 44.2352ZM132.596 44.2352C132.596 43.4794 132.459 42.8415 132.186 42.3215C131.916 41.8015 131.549 41.408 131.086 41.1409C130.625 40.8738 130.11 40.7403 129.539 40.7403C128.968 40.7403 128.451 40.8738 127.988 41.1409C127.528 41.408 127.161 41.8015 126.888 42.3215C126.618 42.8415 126.483 43.4794 126.483 44.2352C126.483 44.991 126.618 45.6289 126.888 46.1489C127.161 46.6688 127.528 47.0624 127.988 47.3295C128.451 47.5966 128.968 47.7301 129.539 47.7301C130.11 47.7301 130.625 47.5966 131.086 47.3295C131.549 47.0624 131.916 46.6688 132.186 46.1489C132.459 45.6289 132.596 44.991 132.596 44.2352Z" fill="#0E0B0A"/>
<path d="M146.601 42.5985C146.5 42.3116 146.367 42.0544 146.201 41.8271C146.038 41.597 145.843 41.4009 145.616 41.2389C145.392 41.077 145.138 40.9534 144.852 40.8681C144.567 40.7829 144.254 40.7403 143.913 40.7403C143.355 40.7403 142.847 40.8738 142.389 41.1409C141.932 41.408 141.568 41.8015 141.298 42.3215C141.028 42.8415 140.893 43.4794 140.893 44.2352C140.893 44.991 141.03 45.6289 141.303 46.1489C141.576 46.6688 141.946 47.0624 142.412 47.3295C142.879 47.5966 143.404 47.7301 143.987 47.7301C144.527 47.7301 145.002 47.6236 145.414 47.4105C145.828 47.1945 146.15 46.8905 146.38 46.4984C146.614 46.1034 146.73 45.6388 146.73 45.1047L147.08 45.1729H144.244V44.2352H147.835V45.1729C147.835 45.8917 147.669 46.5168 147.338 47.0482C147.009 47.5795 146.555 47.9915 145.975 48.2842C145.398 48.574 144.735 48.7189 143.987 48.7189C143.152 48.7189 142.419 48.5371 141.786 48.1734C141.157 47.8097 140.666 47.2925 140.313 46.622C139.964 45.9514 139.789 45.1558 139.789 44.2352C139.789 43.5447 139.888 42.9239 140.088 42.3727C140.29 41.8186 140.576 41.3469 140.944 40.9576C141.312 40.5684 141.748 40.27 142.251 40.0626C142.755 39.8552 143.309 39.7515 143.913 39.7515C144.41 39.7515 144.874 39.8211 145.303 39.9603C145.736 40.0967 146.121 40.2913 146.459 40.5442C146.799 40.7943 147.083 41.094 147.31 41.4435C147.537 41.7902 147.694 42.1752 147.78 42.5985H146.601Z" fill="#0E0B0A"/>
<path d="M154.423 48.5996H153.226L156.687 39.8708H157.866L161.327 48.5996H160.131L157.313 41.2517H157.24L154.423 48.5996ZM154.865 45.1899H159.689V46.1276H154.865V45.1899Z" fill="#0E0B0A"/>
<path d="M170.242 48.5996H167.333V39.8708H170.371C171.285 39.8708 172.068 40.0455 172.718 40.395C173.369 40.7417 173.868 41.2404 174.215 41.891C174.561 42.5389 174.735 43.3146 174.735 44.2181C174.735 45.1274 174.56 45.9102 174.21 46.5666C173.86 47.2201 173.351 47.723 172.682 48.0753C172.013 48.4248 171.199 48.5996 170.242 48.5996ZM168.474 47.6619H170.168C170.948 47.6619 171.594 47.5227 172.106 47.2442C172.619 46.9658 173.001 46.5694 173.252 46.0551C173.504 45.5408 173.63 44.9285 173.63 44.2181C173.63 43.5135 173.506 42.9068 173.257 42.3982C173.008 41.8868 172.637 41.4947 172.143 41.2219C171.649 40.9463 171.034 40.8085 170.297 40.8085H168.474V47.6619Z" fill="#0E0B0A"/>
<path d="M189.141 44.2352C189.141 45.1558 188.961 45.9514 188.602 46.622C188.243 47.2925 187.751 47.8097 187.125 48.1734C186.499 48.5371 185.784 48.7189 184.98 48.7189C184.176 48.7189 183.461 48.5371 182.834 48.1734C182.208 47.8097 181.716 47.2925 181.357 46.622C180.998 45.9514 180.818 45.1558 180.818 44.2352C180.818 43.3146 180.998 42.519 181.357 41.8484C181.716 41.1778 182.208 40.6607 182.834 40.297C183.461 39.9333 184.176 39.7515 184.98 39.7515C185.784 39.7515 186.499 39.9333 187.125 40.297C187.751 40.6607 188.243 41.1778 188.602 41.8484C188.961 42.519 189.141 43.3146 189.141 44.2352ZM188.036 44.2352C188.036 43.4794 187.9 42.8415 187.626 42.3215C187.356 41.8015 186.99 41.408 186.526 41.1409C186.066 40.8738 185.55 40.7403 184.98 40.7403C184.409 40.7403 183.892 40.8738 183.428 41.1409C182.968 41.408 182.601 41.8015 182.328 42.3215C182.058 42.8415 181.923 43.4794 181.923 44.2352C181.923 44.991 182.058 45.6289 182.328 46.1489C182.601 46.6688 182.968 47.0624 183.428 47.3295C183.892 47.5966 184.409 47.7301 184.98 47.7301C185.55 47.7301 186.066 47.5966 186.526 47.3295C186.99 47.0624 187.356 46.6688 187.626 46.1489C187.9 45.6289 188.036 44.991 188.036 44.2352Z" fill="#0E0B0A"/>
</svg>
