<svg width="398" height="105" viewBox="0 0 398 105" fill="none" xmlns="http://www.w3.org/2000/svg">
<path d="M221.264 44.3931H197.336L193.142 53.9398C192.109 56.2893 191.593 58.044 191.593 59.2039C191.593 60.1259 192.033 60.9437 192.915 61.6575C193.826 62.3415 195.771 62.7877 198.749 62.9958V64.6464H179.287V62.9958C181.87 62.5497 183.541 61.9698 184.3 61.256C185.85 59.8285 187.567 56.9287 189.451 52.5569L211.191 2.77103H212.787L234.299 53.0922C236.031 57.1369 237.596 59.769 238.994 60.9883C240.422 62.178 242.397 62.8471 244.919 62.9958V64.6464H220.535V62.9958C222.996 62.8769 224.652 62.4754 225.503 61.7913C226.384 61.1073 226.825 60.2746 226.825 59.2931C226.825 57.9845 226.217 55.9176 225.001 53.0922L221.264 44.3931ZM219.988 41.0919L209.505 16.645L198.749 41.0919H219.988Z" fill="#EAB600"/>
<path d="M247.608 64.6464V62.9958H249.933C252.546 62.9958 254.399 62.178 255.493 60.5422C256.161 59.5608 256.496 57.36 256.496 53.9398V14.8606C256.496 11.0835 256.07 8.71916 255.22 7.76746C254.035 6.45887 252.272 5.80457 249.933 5.80457H247.608V4.15397H272.767C282.004 4.15397 289.023 5.18002 293.824 7.23212C298.655 9.28423 302.529 12.7044 305.446 17.4926C308.394 22.2809 309.867 27.8127 309.867 34.0879C309.867 42.5045 307.254 49.5382 302.028 55.1889C296.164 61.4939 287.23 64.6464 275.228 64.6464H247.608ZM265.247 60.2746C269.106 61.1073 272.342 61.5237 274.955 61.5237C282.004 61.5237 287.853 59.0998 292.502 54.2521C297.151 49.4044 299.476 42.8317 299.476 34.534C299.476 26.1769 297.151 19.5894 292.502 14.7714C287.853 9.95339 281.883 7.5444 274.59 7.5444C271.855 7.5444 268.741 7.97564 265.247 8.83812V60.2746Z" fill="#EAB600"/>
<path d="M351.662 64.6464L327.78 13.7453V54.1629C327.78 57.8804 328.19 60.2002 329.01 61.1222C330.134 62.3713 331.912 62.9958 334.343 62.9958H336.531V64.6464H315.018V62.9958H317.205C319.819 62.9958 321.672 62.2226 322.766 60.6761C323.434 59.7244 323.769 57.5533 323.769 54.1629V14.6375C323.769 11.9609 323.465 10.0277 322.857 8.83812C322.432 7.97564 321.642 7.26186 320.487 6.69679C319.363 6.10198 317.54 5.80457 315.018 5.80457V4.15397H332.52L354.944 51.4862L377.004 4.15397H394.506V5.80457H392.363C389.72 5.80457 387.851 6.57783 386.757 8.12434C386.089 9.07604 385.755 11.2471 385.755 14.6375V54.1629C385.755 57.8804 386.18 60.2002 387.031 61.1222C388.155 62.3713 389.933 62.9958 392.363 62.9958H394.506V64.6464H368.253V62.9958H370.44C373.084 62.9958 374.937 62.2226 376.001 60.6761C376.669 59.7244 377.004 57.5533 377.004 54.1629V13.7453L353.166 64.6464H351.662Z" fill="#EAB600"/>
<path d="M108.064 65.0288C96.2242 60.5323 89.5858 58.0113 77.7455 53.5147L73.3985 46.9006L93.4538 0H96.1034L131.835 85.3929C134.712 92.2567 137.311 96.7231 139.633 98.7924C142.005 100.811 145.285 101.947 149.474 102.199V105H108.973V102.199C113.061 101.997 115.811 101.316 117.225 100.155C118.688 98.9942 119.42 97.5811 119.42 95.9156C119.42 93.695 118.411 90.1875 116.392 85.3929L108.064 65.0288ZM108.064 65.0288L90.6528 23.5436L77.7455 53.5147C89.5858 58.0113 96.2242 60.5323 108.064 65.0288Z" fill="#EAB600"/>
<path d="M69.7224 70.6309H29.9784L23.0137 86.8313C21.2978 90.8183 20.4398 93.796 20.4398 95.7642C20.4398 97.3288 21.1716 98.7167 22.6352 99.9279C24.1492 101.089 27.3792 101.846 32.3252 102.199V105H0V102.199C4.28983 101.442 7.06561 100.458 8.32733 99.2466C10.9012 96.8241 13.7527 91.9034 16.8818 84.4845L52.9921 0H55.6417L91.3735 85.3929C94.2502 92.2567 96.8493 96.7231 99.1709 98.7924C101.543 100.811 104.823 101.947 109.012 102.199V105H68.5112V102.199C72.5991 101.997 75.3497 101.316 76.7628 100.155C78.2264 98.9942 78.9582 97.5811 78.9582 95.9156C78.9582 93.695 77.9488 90.1875 75.9301 85.3929L69.7224 70.6309ZM67.6027 65.0288L50.1911 23.5436L32.3252 65.0288H67.6027Z" fill="#EAB600"/>
<path d="M181.8 102.059H179.287L186.556 83.7287H189.031L196.3 102.059H193.787L187.871 86.6286H187.716L181.8 102.059ZM182.728 94.8988H192.859V96.8679H182.728V94.8988Z" fill="white"/>
<path d="M215.021 102.059H208.911V83.7287H215.291C217.212 83.7287 218.855 84.0957 220.221 84.8296C221.588 85.5576 222.635 86.6048 223.363 87.9712C224.091 89.3317 224.455 90.9606 224.455 92.8581C224.455 94.7675 224.088 96.4114 223.353 97.7898C222.619 99.1622 221.549 100.218 220.144 100.958C218.739 101.692 217.031 102.059 215.021 102.059ZM211.309 100.09H214.866C216.503 100.09 217.86 99.7977 218.936 99.2129C220.012 98.6281 220.814 97.7957 221.343 96.7157C221.871 95.6357 222.135 94.3498 222.135 92.8581C222.135 91.3783 221.874 90.1044 221.352 89.0363C220.83 87.9622 220.051 87.1388 219.013 86.566C217.976 85.9872 216.683 85.6978 215.137 85.6978H211.309V100.09Z" fill="white"/>
<path d="M237.886 83.7287L243.763 99.1592H243.995L249.873 83.7287H252.386L245.117 102.059H242.642L235.373 83.7287H237.886Z" fill="white"/>
<path d="M280.771 92.8939C280.771 94.8272 280.394 96.4979 279.64 97.9061C278.886 99.3143 277.852 100.4 276.537 101.164C275.222 101.928 273.721 102.31 272.032 102.31C270.344 102.31 268.842 101.928 267.527 101.164C266.213 100.4 265.178 99.3143 264.424 97.9061C263.67 96.4979 263.293 94.8272 263.293 92.8939C263.293 90.9606 263.67 89.2899 264.424 87.8817C265.178 86.4735 266.213 85.3875 267.527 84.6237C268.842 83.86 270.344 83.4781 272.032 83.4781C273.721 83.4781 275.222 83.86 276.537 84.6237C277.852 85.3875 278.886 86.4735 279.64 87.8817C280.394 89.2899 280.771 90.9606 280.771 92.8939ZM278.451 92.8939C278.451 91.3067 278.164 89.9671 277.591 88.8752C277.023 87.7832 276.253 86.9568 275.28 86.3959C274.313 85.835 273.231 85.5546 272.032 85.5546C270.833 85.5546 269.748 85.835 268.774 86.3959C267.808 86.9568 267.038 87.7832 266.464 88.8752C265.897 89.9671 265.613 91.3067 265.613 92.8939C265.613 94.4811 265.897 95.8207 266.464 96.9126C267.038 98.0046 267.808 98.831 268.774 99.3919C269.748 99.9528 270.833 100.233 272.032 100.233C273.231 100.233 274.313 99.9528 275.28 99.3919C276.253 98.831 277.023 98.0046 277.591 96.9126C278.164 95.8207 278.451 94.4811 278.451 92.8939Z" fill="white"/>
<path d="M307.863 89.457C307.65 88.8543 307.37 88.3143 307.022 87.8369C306.68 87.3536 306.271 86.9419 305.794 86.6018C305.324 86.2617 304.789 86.0021 304.189 85.8231C303.59 85.6441 302.933 85.5546 302.217 85.5546C301.045 85.5546 299.978 85.835 299.018 86.3959C298.058 86.9568 297.294 87.7832 296.727 88.8752C296.16 89.9671 295.876 91.3067 295.876 92.8939C295.876 94.4811 296.163 95.8207 296.736 96.9126C297.31 98.0046 298.087 98.831 299.066 99.3919C300.046 99.9528 301.148 100.233 302.372 100.233C303.506 100.233 304.505 100.009 305.369 99.562C306.239 99.1085 306.915 98.47 307.399 97.6466C307.889 96.8172 308.133 95.8416 308.133 94.7198L308.868 94.863H302.913V92.8939H310.453V94.863C310.453 96.3726 310.105 97.6854 309.409 98.8012C308.72 99.917 307.766 100.782 306.548 101.397C305.337 102.005 303.945 102.31 302.372 102.31C300.619 102.31 299.079 101.928 297.751 101.164C296.43 100.4 295.399 99.3143 294.658 97.9061C293.923 96.4979 293.556 94.8272 293.556 92.8939C293.556 91.4439 293.766 90.1402 294.184 88.9826C294.61 87.819 295.209 86.8285 295.982 86.0111C296.756 85.1936 297.671 84.5671 298.728 84.1315C299.785 83.6959 300.948 83.4781 302.217 83.4781C303.261 83.4781 304.235 83.6243 305.137 83.9167C306.045 84.2031 306.854 84.6118 307.563 85.1429C308.278 85.668 308.875 86.2975 309.351 87.0314C309.828 87.7594 310.157 88.5679 310.337 89.457H307.863Z" fill="white"/>
<path d="M324.288 102.059H321.774L329.044 83.7287H331.518L338.788 102.059H336.274L330.358 86.6286H330.204L324.288 102.059ZM325.216 94.8988H335.346V96.8679H325.216V94.8988Z" fill="white"/>
<path d="M357.508 102.059H351.399V83.7287H357.779C359.699 83.7287 361.343 84.0957 362.709 84.8296C364.075 85.5576 365.122 86.6048 365.851 87.9712C366.579 89.3317 366.943 90.9606 366.943 92.8581C366.943 94.7675 366.576 96.4114 365.841 97.7898C365.106 99.1622 364.036 100.218 362.632 100.958C361.227 101.692 359.519 102.059 357.508 102.059ZM353.796 100.09H357.353C358.99 100.09 360.347 99.7977 361.423 99.2129C362.499 98.6281 363.302 97.7957 363.83 96.7157C364.359 95.6357 364.623 94.3498 364.623 92.8581C364.623 91.3783 364.362 90.1044 363.84 89.0363C363.318 87.9622 362.538 87.1388 361.501 86.566C360.463 85.9872 359.171 85.6978 357.624 85.6978H353.796V100.09Z" fill="white"/>
<path d="M397.196 92.8939C397.196 94.8272 396.819 96.4979 396.065 97.9061C395.311 99.3143 394.276 100.4 392.962 101.164C391.647 101.928 390.146 102.31 388.457 102.31C386.769 102.31 385.267 101.928 383.952 101.164C382.638 100.4 381.603 99.3143 380.849 97.9061C380.095 96.4979 379.718 94.8272 379.718 92.8939C379.718 90.9606 380.095 89.2899 380.849 87.8817C381.603 86.4735 382.638 85.3875 383.952 84.6237C385.267 83.86 386.769 83.4781 388.457 83.4781C390.146 83.4781 391.647 83.86 392.962 84.6237C394.276 85.3875 395.311 86.4735 396.065 87.8817C396.819 89.2899 397.196 90.9606 397.196 92.8939ZM394.876 92.8939C394.876 91.3067 394.589 89.9671 394.015 88.8752C393.448 87.7832 392.678 86.9568 391.705 86.3959C390.738 85.835 389.656 85.5546 388.457 85.5546C387.258 85.5546 386.173 85.835 385.199 86.3959C384.233 86.9568 383.463 87.7832 382.889 88.8752C382.322 89.9671 382.038 91.3067 382.038 92.8939C382.038 94.4811 382.322 95.8207 382.889 96.9126C383.463 98.0046 384.233 98.831 385.199 99.3919C386.173 99.9528 387.258 100.233 388.457 100.233C389.656 100.233 390.738 99.9528 391.705 99.3919C392.678 98.831 393.448 98.0046 394.015 96.9126C394.589 95.8207 394.876 94.4811 394.876 92.8939Z" fill="white"/>
</svg>
