<svg width="22" height="18" viewBox="0 0 22 18" fill="none" xmlns="http://www.w3.org/2000/svg">
<path d="M21.6611 2.7627C20.8975 3.10677 20.0744 3.33287 19.2216 3.44101C20.0943 2.91999 20.7686 2.09423 21.0859 1.10135C20.2629 1.59287 19.3505 1.93694 18.3886 2.13355C17.6052 1.28813 16.5044 0.7966 15.2549 0.7966C12.9245 0.7966 11.0205 2.68406 11.0205 5.01389C11.0205 5.34813 11.0601 5.67253 11.1296 5.97728C7.59921 5.80033 4.45561 4.11931 2.36318 1.57321C1.99627 2.19253 1.78802 2.91999 1.78802 3.68677C1.78802 5.15152 2.53177 6.44914 3.68211 7.18643C2.97802 7.18643 2.32352 6.98982 1.74835 6.69491C1.74835 6.69491 1.74835 6.69491 1.74835 6.7244C1.74835 8.76914 3.21602 10.4797 5.1597 10.863C4.8027 10.9613 4.42586 11.0105 4.03911 11.0105C3.77136 11.0105 3.50361 10.981 3.24577 10.9319C3.78127 12.5932 5.3382 13.8319 7.21246 13.8613C5.76462 15.0017 3.93002 15.6702 1.92685 15.6702C1.58968 15.6702 1.25251 15.6505 0.915344 15.6112C2.79952 16.8105 5.0407 17.5085 7.44054 17.5085C15.2549 17.5085 19.5488 11.0793 19.5488 5.50541C19.5488 5.31863 19.5488 5.14169 19.5389 4.95491C20.3719 4.36507 21.0859 3.61796 21.6611 2.7627Z" fill="white"/>
</svg>
