<svg width="34" height="34" viewBox="0 0 34 34" fill="none" xmlns="http://www.w3.org/2000/svg">
<path fill-rule="evenodd" clip-rule="evenodd" d="M17 34C26.3888 34 34 26.3888 34 17C34 7.61116 26.3888 0 17 0C7.61116 0 0 7.61116 0 17C0 26.3888 7.61116 34 17 34ZM25.2216 12.441C26.0744 12.3329 26.8975 12.1068 27.6611 11.7627C27.0859 12.618 26.3719 13.3651 25.5389 13.9549C25.5488 14.1417 25.5488 14.3186 25.5488 14.5054C25.5488 20.0793 21.2549 26.5085 13.4405 26.5085C11.0407 26.5085 8.79952 25.8105 6.91534 24.6112C7.25251 24.6505 7.58968 24.6702 7.92685 24.6702C9.93002 24.6702 11.7646 24.0017 13.2125 22.8613C11.3382 22.8319 9.78127 21.5932 9.24577 19.9319C9.5036 19.981 9.77136 20.0105 10.0391 20.0105C10.4259 20.0105 10.8027 19.9613 11.1597 19.863C9.21602 19.4797 7.74835 17.7691 7.74835 15.7244V15.6949C8.32351 15.9898 8.97802 16.1864 9.68211 16.1864C8.53177 15.4491 7.78801 14.1515 7.78801 12.6868C7.78801 11.92 7.99626 11.1925 8.36318 10.5732C10.4556 13.1193 13.5992 14.8003 17.1296 14.9773C17.0601 14.6725 17.0205 14.3481 17.0205 14.0139C17.0205 11.6841 18.9245 9.7966 21.2549 9.7966C22.5044 9.7966 23.6052 10.2881 24.3886 11.1335C25.3505 10.9369 26.2628 10.5929 27.0859 10.1013C26.7686 11.0942 26.0943 11.92 25.2216 12.441Z" fill="#0E0B0A"/>
</svg>
